<svg class="main-svg" xmlns="http://www.w3.org/2000/svg" xmlns:xlink="http://www.w3.org/1999/xlink" width="881" height="456" style="" viewBox="0 0 881 456"><rect x="0" y="0" width="881" height="456" style="fill: rgb(255, 255, 255); fill-opacity: 1;"/><defs id="defs-74a297"><g class="clips"><clipPath id="clip74a297xyplot" class="plotclip"><rect width="689" height="336"/></clipPath><clipPath class="axesclip" id="clip74a297x"><rect x="60" y="0" width="689" height="456"/></clipPath><clipPath class="axesclip" id="clip74a297y"><rect x="0" y="60" width="881" height="336"/></clipPath><clipPath class="axesclip" id="clip74a297xy"><rect x="60" y="60" width="689" height="336"/></clipPath></g><g class="gradients"/></defs><g class="bglayer"/><g class="layer-below"><g class="imagelayer"/><g class="shapelayer"/></g><g class="cartesianlayer"><g class="subplot xy"><g class="layer-subplot"><g class="shapelayer"/><g class="imagelayer"/></g><g class="gridlayer"><g class="x"><path class="xgrid crisp" transform="translate(125.07,0)" d="M0,60v336" style="stroke: rgb(238, 238, 238); stroke-opacity: 1; stroke-width: 1px;"/><path class="xgrid crisp" transform="translate(201.63,0)" d="M0,60v336" style="stroke: rgb(238, 238, 238); stroke-opacity: 1; stroke-width: 1px;"/><path class="xgrid crisp" transform="translate(278.18,0)" d="M0,60v336" style="stroke: rgb(238, 238, 238); stroke-opacity: 1; stroke-width: 1px;"/><path class="xgrid crisp" transform="translate(354.74,0)" d="M0,60v336" style="stroke: rgb(238, 238, 238); stroke-opacity: 1; stroke-width: 1px;"/><path class="xgrid crisp" transform="translate(431.29,0)" d="M0,60v336" style="stroke: rgb(238, 238, 238); stroke-opacity: 1; stroke-width: 1px;"/><path class="xgrid crisp" transform="translate(507.85,0)" d="M0,60v336" style="stroke: rgb(238, 238, 238); stroke-opacity: 1; stroke-width: 1px;"/><path class="xgrid crisp" transform="translate(584.41,0)" d="M0,60v336" style="stroke: rgb(238, 238, 238); stroke-opacity: 1; stroke-width: 1px;"/><path class="xgrid crisp" transform="translate(660.96,0)" d="M0,60v336" style="stroke: rgb(238, 238, 238); stroke-opacity: 1; stroke-width: 1px;"/><path class="xgrid crisp" transform="translate(737.52,0)" d="M0,60v336" style="stroke: rgb(238, 238, 238); stroke-opacity: 1; stroke-width: 1px;"/></g><g class="y"><path class="ygrid crisp" transform="translate(0,375.24)" d="M60,0h689" style="stroke: rgb(238, 238, 238); stroke-opacity: 1; stroke-width: 1px;"/><path class="ygrid crisp" transform="translate(0,311.01)" d="M60,0h689" style="stroke: rgb(238, 238, 238); stroke-opacity: 1; stroke-width: 1px;"/><path class="ygrid crisp" transform="translate(0,246.79)" d="M60,0h689" style="stroke: rgb(238, 238, 238); stroke-opacity: 1; stroke-width: 1px;"/><path class="ygrid crisp" transform="translate(0,182.56)" d="M60,0h689" style="stroke: rgb(238, 238, 238); stroke-opacity: 1; stroke-width: 1px;"/><path class="ygrid crisp" transform="translate(0,118.33)" d="M60,0h689" style="stroke: rgb(238, 238, 238); stroke-opacity: 1; stroke-width: 1px;"/></g></g><g class="zerolinelayer"/><path class="xlines-below"/><path class="ylines-below"/><g class="overlines-below"/><g class="xaxislayer-below"/><g class="yaxislayer-below"/><g class="overaxes-below"/><g class="plot" transform="translate(60, 60)" clip-path="url('#clip74a297xyplot')"><g class="scatterlayer mlayer"><g class="trace scatter traced98648" style="stroke-miterlimit: 2; opacity: 1;"><g class="fills"/><g class="errorbars"/><g class="lines"><path class="js-line" d="M0,137.22L11.48,99.01L22.97,72.89L34.45,65.93L45.93,49.98L57.42,45.38L68.9,45.59L80.38,41.96L91.87,44.95L103.35,40.56L114.83,34.89L126.32,40.24L137.8,37.67L149.28,36.18L160.77,35.96L172.25,16.8L183.73,32.21L195.22,42.49L206.7,57.8L218.18,144.82L229.67,172.01L241.15,226.61L252.63,222L264.12,178.12L275.6,219.43L287.08,251.44L298.57,245.98L310.05,213.87L321.53,240.84L333.02,231.96L344.5,268.35L355.98,292.12L367.47,298.97L390.43,300.47L401.92,300.25L413.4,299.93L424.88,290.08L436.37,290.62L447.85,293.3L459.33,288.59L470.82,292.55L482.3,287.51L493.78,287.73L505.27,260.43L516.75,292.55L528.23,285.8L539.72,281.95L551.2,249.3L562.68,258.08L574.17,281.95L585.65,277.02L597.13,270.49L608.62,260.43L620.1,250.8L631.58,269.53L643.07,249.73L654.55,256.04L666.03,254.33L677.52,256.26L689,248.98" style="vector-effect: non-scaling-stroke; fill: none; stroke: rgb(31, 119, 180); stroke-opacity: 1; stroke-width: 2px; opacity: 1;"/></g><g class="points"/><g class="text"/></g><g class="trace scatter trace960e8a" style="stroke-miterlimit: 2; opacity: 1;"><g class="fills"/><g class="errorbars"/><g class="lines"><path class="js-line" d="M0,263L11.48,228L22.97,186.36L34.45,191.07L45.93,165.59L57.42,149.43L68.9,151.46L80.38,148.46L91.87,142.79L103.35,143.75L114.83,134.98L126.32,144.5L137.8,147.07L149.28,140.11L160.77,143.01L172.25,103.4L183.73,109.61L195.22,114L206.7,215.05L218.18,277.13L229.67,261.61L241.15,293.3L252.63,283.98L264.12,269.75L275.6,294.04L287.08,297.68L298.57,297.36L310.05,286.98L321.53,302.82L333.02,292.65L344.5,301.43L355.98,308.28L367.47,302.39L378.95,303.79L390.43,309.35L401.92,308.92L413.4,307.1L424.88,306.03L436.37,312.24L447.85,303.79L459.33,307.75L470.82,319.2L482.3,305.39L493.78,310.74L505.27,300.15L516.75,302.93L528.23,304L539.72,305.18L551.2,280.24L562.68,292.76L574.17,303.36L585.65,297.26L597.13,311.6L608.62,296.19L620.1,283.13L631.58,282.91L643.07,284.84L654.55,304.75L666.03,304.75L689,307" style="vector-effect: non-scaling-stroke; fill: none; stroke: rgb(255, 127, 14); stroke-opacity: 1; stroke-width: 2px; opacity: 1;"/></g><g class="points"/><g class="text"/></g><g class="trace scatter trace91fe9b" style="stroke-miterlimit: 2; opacity: 1;"><g class="fills"/><g class="errorbars"/><g class="lines"><path class="js-line" d="M0,214.68L11.48,217.89L22.97,186.6L34.45,185.59L45.93,165.87L57.42,153.66L68.9,146.87L80.38,155.77L91.87,159.72L103.35,158.16L114.83,150.54L126.32,160.09L137.8,136.87L149.28,146.87L160.77,142.93L172.25,124.49L183.73,202.84L195.22,193.12L206.7,229.82L218.18,271.57L229.67,262.85L241.15,259.27L252.63,267.16L264.12,282.03L275.6,290.74L287.08,265.6L298.57,298.08L310.05,287.53L321.53,285.05L333.02,292.94L344.5,292.39L355.98,309.92L367.47,301.84L378.95,312.49L390.43,300.1L401.92,309.28L413.4,308.27L424.88,312.3L436.37,309.46L447.85,307.99L459.33,310.19L470.82,313.95L482.3,310.47L493.78,316.8L505.27,307.26L516.75,311.2L528.23,313.5L539.72,310.93L551.2,299.73L562.68,304.5L574.17,307.81L585.65,306.52L597.13,311.48L608.62,300.83L620.1,299.64L631.58,305.42L643.07,304.6L654.55,306.8L666.03,302.49L677.52,306.16L689,305.79" style="vector-effect: non-scaling-stroke; fill: none; stroke: rgb(44, 160, 44); stroke-opacity: 1; stroke-width: 2px; opacity: 1;"/></g><g class="points"/><g class="text"/></g><g class="trace scatter trace478891" style="stroke-miterlimit: 2; opacity: 1;"><g class="fills"/><g class="errorbars"/><g class="lines"><path class="js-line" d="M0,224.14L11.48,193.1L22.97,169.12L34.45,150.5L45.93,140.54L57.42,127.38L68.9,133.8L80.38,130.59L91.87,115.71L103.35,122.56L114.83,113.68L126.32,119.03L137.8,120.95L149.28,114.96L160.77,112.5L172.25,77.92L183.73,80.06L195.22,83.27L206.7,175.33L218.18,247.59L229.67,229.39L241.15,276.38L252.63,278.95L264.12,240.42L275.6,271.35L287.08,280.99L298.57,299.29L310.05,281.73L321.53,285.16L333.02,276.06L344.5,302.39L355.98,307.32L367.47,300.47L378.95,298.01L390.43,303.89L401.92,308.07L413.4,301.43L424.88,298.65L436.37,302.72L447.85,297.47L459.33,298.75L470.82,305.71L482.3,300.04L493.78,301.43L505.27,304.32L516.75,302.07L528.23,305.61L539.72,308.92L551.2,294.15L562.68,300.57L574.17,304.32L597.13,290.3L608.62,303.36L620.1,291.26L631.58,297.9L654.55,300.25L666.03,296.19L677.52,298.54L689,297.9" style="vector-effect: non-scaling-stroke; fill: none; stroke: rgb(214, 39, 40); stroke-opacity: 1; stroke-width: 2px; opacity: 1;"/></g><g class="points"/><g class="text"/></g><g class="trace scatter trace0b60cb" style="stroke-miterlimit: 2; opacity: 1;"><g class="fills"/><g class="errorbars"/><g class="lines"><path class="js-line" d="M0,263.11L11.48,259.04L22.97,240.52L34.45,232.39L45.93,212.91L57.42,208.52L68.9,205.09L80.38,201.24L91.87,218.15L103.35,202.52L114.83,193.1L126.32,203.7L137.8,199.63L149.28,192.78L160.77,189.25L172.25,159.7L183.73,204.98L195.22,203.38L206.7,239.67L229.67,292.33L241.15,288.91L252.63,316.31L264.12,282.16L275.6,296.72L287.08,295.54L310.05,304.53L321.53,291.37L333.02,316.1L344.5,308.6L355.98,298.54L367.47,308.5L378.95,312.78L390.43,315.03L401.92,316.1L413.4,318.88L424.88,310.53L436.37,312.35L447.85,312.35L459.33,313.31L482.3,312.99L493.78,316.63L505.27,311.71L516.75,311.49L528.23,309.24L539.72,310.21L551.2,317.49L562.68,298.11L574.17,301.64L585.65,308.39L597.13,308.17L608.62,300.15L620.1,306.03L631.58,309.78L643.07,302.29L654.55,301.97L666.03,305.82L677.52,300.79L689,308.17" style="vector-effect: non-scaling-stroke; fill: none; stroke: rgb(148, 103, 189); stroke-opacity: 1; stroke-width: 2px; opacity: 1;"/></g><g class="points"/><g class="text"/></g><g class="trace scatter trace4c2f57" style="stroke-miterlimit: 2; opacity: 1;"><g class="fills"/><g class="errorbars"/><g class="lines"><path class="js-line" d="M0,250.69L11.48,216.97L22.97,175.44L34.45,163.77L45.93,150.61L57.42,140.76L68.9,139.26L91.87,124.27L103.35,122.24L114.83,115.92L126.32,117.96L137.8,116.35L149.28,112.39L160.77,108.86L172.25,68.61L183.73,81.99L195.22,92.16L206.7,118.81L218.18,193.42L229.67,232.17L241.15,279.59L252.63,277.56L264.12,235.17L275.6,269.21L287.08,286.12L298.57,291.58L310.05,274.03L321.53,280.77L333.02,281.63L355.98,309.03L367.47,304.96L378.95,304.32L390.43,308.39L413.4,312.78L424.88,314.06L436.37,302.72L447.85,307.32L459.33,314.06L470.82,306.35L482.3,308.39L493.78,307L505.27,279.06L516.75,315.24L528.23,309.46L539.72,300.9L551.2,283.34L562.68,283.88L574.17,303.46L585.65,296.19L597.13,294.79L608.62,289.01L620.1,280.88L631.58,297.68L643.07,287.41L654.55,282.8L666.03,285.7L677.52,289.55L689,282.8" style="vector-effect: non-scaling-stroke; fill: none; stroke: rgb(140, 86, 75); stroke-opacity: 1; stroke-width: 2px; opacity: 1;"/></g><g class="points"/><g class="text"/></g><g class="trace scatter trace965801" style="stroke-miterlimit: 2; opacity: 1;"><g class="fills"/><g class="errorbars"/><g class="lines"><path class="js-line" d="M0,250.58L11.48,237.2L22.97,210.34L34.45,206.05L45.93,200.7L57.42,197.81L68.9,196.42L80.38,192.89L91.87,190.75L103.35,190.85L114.83,184.43L126.32,189.57L137.8,180.9L149.28,182.29L160.77,180.68L172.25,154.46L183.73,219.33L195.22,247.69L206.7,210.01L218.18,259.26L229.67,267.71L241.15,283.98L252.63,287.73L264.12,262.04L275.6,281.95L287.08,286.02L298.57,294.58L310.05,280.99L321.53,297.26L333.02,288.37L344.5,298.54L355.98,308.39L367.47,301.32L378.95,308.92L390.43,304.11L401.92,312.78L413.4,309.67L424.88,310.64L436.37,301.22L447.85,305.39L459.33,296.08L470.82,299.82L482.3,301.54L493.78,300.47L505.27,294.47L516.75,298.65L528.23,300.79L539.72,301.11L551.2,290.19L562.68,289.98L574.17,297.47L585.65,295.22L597.13,293.94L608.62,290.41L620.1,286.02L643.07,300.25L654.55,288.37L666.03,288.05L677.52,298.54L689,291.15" style="vector-effect: non-scaling-stroke; fill: none; stroke: rgb(227, 119, 194); stroke-opacity: 1; stroke-width: 2px; opacity: 1;"/></g><g class="points"/><g class="text"/></g><g class="trace scatter traced80124" style="stroke-miterlimit: 2; opacity: 1;"><g class="fills"/><g class="errorbars"/><g class="lines"><path class="js-line" d="M0,240.42L11.48,212.05L22.97,190.32L34.45,189.46L45.93,172.87L57.42,166.34L68.9,168.7L80.38,161.84L91.87,161.31L103.35,157.78L114.83,153.28L126.32,159.49L137.8,150.39L149.28,152.85L160.77,153.6L172.25,116.67L183.73,139.79L195.22,139.26L206.7,201.77L218.18,266.53L229.67,263L241.15,284.62L252.63,288.59L264.12,258.51L275.6,279.17L287.08,288.91L298.57,291.05L310.05,279.17L321.53,292.97L333.02,288.48L344.5,302.29L355.98,293.08L367.47,305.93L378.95,300.15L390.43,307.32L401.92,307.64L413.4,301.86L424.88,292.12L436.37,301.54L447.85,296.93L459.33,296.83L470.82,296.83L482.3,292.01L493.78,290.51L505.27,277.88L516.75,294.15L528.23,297.79L539.72,295.33L551.2,277.67L562.68,291.05L574.17,299.61L585.65,278.74L597.13,287.62L608.62,287.51L620.1,280.24L631.58,285.16L643.07,292.12L654.55,281.63L666.03,290.3L677.52,290.08L689,292.44" style="vector-effect: non-scaling-stroke; fill: none; stroke: rgb(127, 127, 127); stroke-opacity: 1; stroke-width: 2px; opacity: 1;"/></g><g class="points"/><g class="text"/></g><g class="trace scatter tracee2db8c" style="stroke-miterlimit: 2; opacity: 1;"><g class="fills"/><g class="errorbars"/><g class="lines"><path class="js-line" d="M0,252.08L11.48,234.53L22.97,203.7L34.45,204.02L45.93,189.89L68.9,187.86L80.38,180.04L91.87,176.3L103.35,170.41L114.83,175.76L126.32,169.55L137.8,171.05L149.28,173.41L160.77,163.13L172.25,131.77L183.73,146.64L195.22,163.56L206.7,218.58L218.18,265.25L229.67,266L241.15,282.7L252.63,291.48L264.12,264.29L275.6,290.51L287.08,299.29L298.57,295.12L310.05,289.44L321.53,295.76L333.02,285.16L344.5,302.07L355.98,309.67L367.47,301.75L378.95,310.85L390.43,303.14L401.92,308.39L413.4,302.93L424.88,305.39L436.37,305.18L447.85,308.28L459.33,303.25L470.82,303.57L482.3,296.4L493.78,292.01L505.27,286.44L516.75,303.25L528.23,299.82L539.72,303.89L551.2,287.84L562.68,288.91L574.17,299.18L585.65,284.52L597.13,292.01L608.62,288.37L620.1,290.3L631.58,284.95L643.07,295.76L654.55,292.87L666.03,289.23L677.52,284.62L689,288.26" style="vector-effect: non-scaling-stroke; fill: none; stroke: rgb(188, 189, 34); stroke-opacity: 1; stroke-width: 2px; opacity: 1;"/></g><g class="points"/><g class="text"/></g><g class="trace scatter traced2f667" style="stroke-miterlimit: 2; opacity: 1;"><g class="fills"/><g class="errorbars"/><g class="lines"><path class="js-line" d="M0,285.7L11.48,273.39L22.97,253.47L34.45,248.87L45.93,239.56L57.42,230.35L68.9,232.92L80.38,226.61L91.87,233.67L103.35,222L114.83,225.54L126.32,226.61L137.8,225.11L149.28,223.18L160.77,224.14L172.25,189.89L183.73,193.32L195.22,199.31L206.7,264.5L218.18,291.48L229.67,292.22L241.15,293.62L252.63,305.82L264.12,285.27L275.6,299.5L287.08,311.81L298.57,307.75L310.05,299.5L321.53,309.46L333.02,291.58L344.5,311.39L355.98,299.4L367.47,311.28L378.95,303.25L390.43,301.64L401.92,308.39L413.4,306.68L424.88,302.18L436.37,300.68L470.82,301L482.3,294.58L493.78,288.91L505.27,297.47L516.75,291.15L528.23,297.47L539.72,297.04L551.2,281.31L562.68,291.48L574.17,305.5L585.65,295.86L597.13,292.12L608.62,297.04L620.1,297.79L631.58,297.9L643.07,299.82L654.55,293.62L666.03,298.75L689,289.44" style="vector-effect: non-scaling-stroke; fill: none; stroke: rgb(23, 190, 207); stroke-opacity: 1; stroke-width: 2px; opacity: 1;"/></g><g class="points"/><g class="text"/></g></g></g><g class="overplot"/><path class="xlines-above crisp" d="M0,0" style="fill: none;"/><path class="ylines-above crisp" d="M0,0" style="fill: none;"/><g class="overlines-above"/><g class="xaxislayer-above"><g class="xtick"><text text-anchor="middle" x="0" y="409" transform="translate(125.07,0)" style="font-family: 'Open Sans', verdana, arial, sans-serif; font-size: 12px; fill: rgb(68, 68, 68); fill-opacity: 1; white-space: pre;">20k</text></g><g class="xtick"><text text-anchor="middle" x="0" y="409" transform="translate(201.63,0)" style="font-family: 'Open Sans', verdana, arial, sans-serif; font-size: 12px; fill: rgb(68, 68, 68); fill-opacity: 1; white-space: pre;">40k</text></g><g class="xtick"><text text-anchor="middle" x="0" y="409" transform="translate(278.18,0)" style="font-family: 'Open Sans', verdana, arial, sans-serif; font-size: 12px; fill: rgb(68, 68, 68); fill-opacity: 1; white-space: pre;">60k</text></g><g class="xtick"><text text-anchor="middle" x="0" y="409" transform="translate(354.74,0)" style="font-family: 'Open Sans', verdana, arial, sans-serif; font-size: 12px; fill: rgb(68, 68, 68); fill-opacity: 1; white-space: pre;">80k</text></g><g class="xtick"><text text-anchor="middle" x="0" y="409" transform="translate(431.29,0)" style="font-family: 'Open Sans', verdana, arial, sans-serif; font-size: 12px; fill: rgb(68, 68, 68); fill-opacity: 1; white-space: pre;">100k</text></g><g class="xtick"><text text-anchor="middle" x="0" y="409" transform="translate(507.85,0)" style="font-family: 'Open Sans', verdana, arial, sans-serif; font-size: 12px; fill: rgb(68, 68, 68); fill-opacity: 1; white-space: pre;">120k</text></g><g class="xtick"><text text-anchor="middle" x="0" y="409" transform="translate(584.41,0)" style="font-family: 'Open Sans', verdana, arial, sans-serif; font-size: 12px; fill: rgb(68, 68, 68); fill-opacity: 1; white-space: pre;">140k</text></g><g class="xtick"><text text-anchor="middle" x="0" y="409" transform="translate(660.96,0)" style="font-family: 'Open Sans', verdana, arial, sans-serif; font-size: 12px; fill: rgb(68, 68, 68); fill-opacity: 1; white-space: pre;">160k</text></g><g class="xtick"><text text-anchor="middle" x="0" y="409" transform="translate(737.52,0)" style="font-family: 'Open Sans', verdana, arial, sans-serif; font-size: 12px; fill: rgb(68, 68, 68); fill-opacity: 1; white-space: pre;">180k</text></g></g><g class="yaxislayer-above"><g class="ytick"><text text-anchor="end" x="59" y="4.199999999999999" transform="translate(0,375.24)" style="font-family: 'Open Sans', verdana, arial, sans-serif; font-size: 12px; fill: rgb(68, 68, 68); fill-opacity: 1; white-space: pre;">0.5</text></g><g class="ytick"><text text-anchor="end" x="59" y="4.199999999999999" transform="translate(0,311.01)" style="font-family: 'Open Sans', verdana, arial, sans-serif; font-size: 12px; fill: rgb(68, 68, 68); fill-opacity: 1; white-space: pre;">0.6</text></g><g class="ytick"><text text-anchor="end" x="59" y="4.199999999999999" transform="translate(0,246.79)" style="font-family: 'Open Sans', verdana, arial, sans-serif; font-size: 12px; fill: rgb(68, 68, 68); fill-opacity: 1; white-space: pre;">0.7</text></g><g class="ytick"><text text-anchor="end" x="59" y="4.199999999999999" transform="translate(0,182.56)" style="font-family: 'Open Sans', verdana, arial, sans-serif; font-size: 12px; fill: rgb(68, 68, 68); fill-opacity: 1; white-space: pre;">0.8</text></g><g class="ytick"><text text-anchor="end" x="59" y="4.199999999999999" transform="translate(0,118.33)" style="font-family: 'Open Sans', verdana, arial, sans-serif; font-size: 12px; fill: rgb(68, 68, 68); fill-opacity: 1; white-space: pre;">0.9</text></g></g><g class="overaxes-above"/></g></g><g class="polarlayer"/><g class="ternarylayer"/><g class="geolayer"/><g class="funnelarealayer"/><g class="pielayer"/><g class="treemaplayer"/><g class="sunburstlayer"/><g class="glimages"/><defs id="topdefs-74a297"><g class="clips"/><clipPath id="legend74a297"><rect width="106" height="200" x="0" y="0"/></clipPath></defs><g class="layer-above"><g class="imagelayer"/><g class="shapelayer"/></g><g class="infolayer"><g class="legend" pointer-events="all" transform="translate(762.78, 60)"><rect class="bg" shape-rendering="crispEdges" width="106" height="200" x="0" y="0" style="stroke: rgb(68, 68, 68); stroke-opacity: 1; fill: rgb(255, 255, 255); fill-opacity: 1; stroke-width: 0px;"/><g class="scrollbox" transform="translate(0, 0)" clip-path="url('#legend74a297')"><g class="groups"><g class="traces" transform="translate(0, 14.5)" style="opacity: 1;"><text class="legendtext" text-anchor="start" x="40" y="4.680000000000001" style="font-family: 'Open Sans', verdana, arial, sans-serif; font-size: 12px; fill: rgb(68, 68, 68); fill-opacity: 1; white-space: pre;">lfw</text><g class="layers" style="opacity: 1;"><g class="legendfill"/><g class="legendlines"><path class="js-line" d="M5,0h30" style="fill: none; stroke: rgb(31, 119, 180); stroke-opacity: 1; stroke-width: 2px;"/></g><g class="legendsymbols"><g class="legendpoints"/></g></g><rect class="legendtoggle" x="0" y="-9.5" width="100.984375" height="19" style="fill: rgb(0, 0, 0); fill-opacity: 0;"/></g><g class="traces" transform="translate(0, 33.5)" style="opacity: 1;"><text class="legendtext" text-anchor="start" x="40" y="4.680000000000001" style="font-family: 'Open Sans', verdana, arial, sans-serif; font-size: 12px; fill: rgb(68, 68, 68); fill-opacity: 1; white-space: pre;">agedb-30</text><g class="layers" style="opacity: 1;"><g class="legendfill"/><g class="legendlines"><path class="js-line" d="M5,0h30" style="fill: none; stroke: rgb(255, 127, 14); stroke-opacity: 1; stroke-width: 2px;"/></g><g class="legendsymbols"><g class="legendpoints"/></g></g><rect class="legendtoggle" x="0" y="-9.5" width="100.984375" height="19" style="fill: rgb(0, 0, 0); fill-opacity: 0;"/></g><g class="traces" transform="translate(0, 52.5)" style="opacity: 1;"><text class="legendtext" text-anchor="start" x="40" y="4.680000000000001" style="font-family: 'Open Sans', verdana, arial, sans-serif; font-size: 12px; fill: rgb(68, 68, 68); fill-opacity: 1; white-space: pre;">cfp-fp</text><g class="layers" style="opacity: 1;"><g class="legendfill"/><g class="legendlines"><path class="js-line" d="M5,0h30" style="fill: none; stroke: rgb(44, 160, 44); stroke-opacity: 1; stroke-width: 2px;"/></g><g class="legendsymbols"><g class="legendpoints"/></g></g><rect class="legendtoggle" x="0" y="-9.5" width="100.984375" height="19" style="fill: rgb(0, 0, 0); fill-opacity: 0;"/></g><g class="traces" transform="translate(0, 71.5)" style="opacity: 1;"><text class="legendtext" text-anchor="start" x="40" y="4.680000000000001" style="font-family: 'Open Sans', verdana, arial, sans-serif; font-size: 12px; fill: rgb(68, 68, 68); fill-opacity: 1; white-space: pre;">calfw</text><g class="layers" style="opacity: 1;"><g class="legendfill"/><g class="legendlines"><path class="js-line" d="M5,0h30" style="fill: none; stroke: rgb(214, 39, 40); stroke-opacity: 1; stroke-width: 2px;"/></g><g class="legendsymbols"><g class="legendpoints"/></g></g><rect class="legendtoggle" x="0" y="-9.5" width="100.984375" height="19" style="fill: rgb(0, 0, 0); fill-opacity: 0;"/></g><g class="traces" transform="translate(0, 90.5)" style="opacity: 1;"><text class="legendtext" text-anchor="start" x="40" y="4.680000000000001" style="font-family: 'Open Sans', verdana, arial, sans-serif; font-size: 12px; fill: rgb(68, 68, 68); fill-opacity: 1; white-space: pre;">cplfw</text><g class="layers" style="opacity: 1;"><g class="legendfill"/><g class="legendlines"><path class="js-line" d="M5,0h30" style="fill: none; stroke: rgb(148, 103, 189); stroke-opacity: 1; stroke-width: 2px;"/></g><g class="legendsymbols"><g class="legendpoints"/></g></g><rect class="legendtoggle" x="0" y="-9.5" width="100.984375" height="19" style="fill: rgb(0, 0, 0); fill-opacity: 0;"/></g><g class="traces" transform="translate(0, 109.5)" style="opacity: 1;"><text class="legendtext" text-anchor="start" x="40" y="4.680000000000001" style="font-family: 'Open Sans', verdana, arial, sans-serif; font-size: 12px; fill: rgb(68, 68, 68); fill-opacity: 1; white-space: pre;">sllfw</text><g class="layers" style="opacity: 1;"><g class="legendfill"/><g class="legendlines"><path class="js-line" d="M5,0h30" style="fill: none; stroke: rgb(140, 86, 75); stroke-opacity: 1; stroke-width: 2px;"/></g><g class="legendsymbols"><g class="legendpoints"/></g></g><rect class="legendtoggle" x="0" y="-9.5" width="100.984375" height="19" style="fill: rgb(0, 0, 0); fill-opacity: 0;"/></g><g class="traces" transform="translate(0, 128.5)" style="opacity: 1;"><text class="legendtext" text-anchor="start" x="40" y="4.680000000000001" style="font-family: 'Open Sans', verdana, arial, sans-serif; font-size: 12px; fill: rgb(68, 68, 68); fill-opacity: 1; white-space: pre;">Asian</text><g class="layers" style="opacity: 1;"><g class="legendfill"/><g class="legendlines"><path class="js-line" d="M5,0h30" style="fill: none; stroke: rgb(227, 119, 194); stroke-opacity: 1; stroke-width: 2px;"/></g><g class="legendsymbols"><g class="legendpoints"/></g></g><rect class="legendtoggle" x="0" y="-9.5" width="100.984375" height="19" style="fill: rgb(0, 0, 0); fill-opacity: 0;"/></g><g class="traces" transform="translate(0, 147.5)" style="opacity: 1;"><text class="legendtext" text-anchor="start" x="40" y="4.680000000000001" style="font-family: 'Open Sans', verdana, arial, sans-serif; font-size: 12px; fill: rgb(68, 68, 68); fill-opacity: 1; white-space: pre;">Caucasian</text><g class="layers" style="opacity: 1;"><g class="legendfill"/><g class="legendlines"><path class="js-line" d="M5,0h30" style="fill: none; stroke: rgb(127, 127, 127); stroke-opacity: 1; stroke-width: 2px;"/></g><g class="legendsymbols"><g class="legendpoints"/></g></g><rect class="legendtoggle" x="0" y="-9.5" width="100.984375" height="19" style="fill: rgb(0, 0, 0); fill-opacity: 0;"/></g><g class="traces" transform="translate(0, 166.5)" style="opacity: 1;"><text class="legendtext" text-anchor="start" x="40" y="4.680000000000001" style="font-family: 'Open Sans', verdana, arial, sans-serif; font-size: 12px; fill: rgb(68, 68, 68); fill-opacity: 1; white-space: pre;">Indian</text><g class="layers" style="opacity: 1;"><g class="legendfill"/><g class="legendlines"><path class="js-line" d="M5,0h30" style="fill: none; stroke: rgb(188, 189, 34); stroke-opacity: 1; stroke-width: 2px;"/></g><g class="legendsymbols"><g class="legendpoints"/></g></g><rect class="legendtoggle" x="0" y="-9.5" width="100.984375" height="19" style="fill: rgb(0, 0, 0); fill-opacity: 0;"/></g><g class="traces" transform="translate(0, 185.5)" style="opacity: 1;"><text class="legendtext" text-anchor="start" x="40" y="4.680000000000001" style="font-family: 'Open Sans', verdana, arial, sans-serif; font-size: 12px; fill: rgb(68, 68, 68); fill-opacity: 1; white-space: pre;">African</text><g class="layers" style="opacity: 1;"><g class="legendfill"/><g class="legendlines"><path class="js-line" d="M5,0h30" style="fill: none; stroke: rgb(23, 190, 207); stroke-opacity: 1; stroke-width: 2px;"/></g><g class="legendsymbols"><g class="legendpoints"/></g></g><rect class="legendtoggle" x="0" y="-9.5" width="100.984375" height="19" style="fill: rgb(0, 0, 0); fill-opacity: 0;"/></g></g></g><rect class="scrollbar" rx="20" ry="3" width="0" height="0" x="0" y="0" style="fill: rgb(128, 139, 164); fill-opacity: 1;"/></g><g class="g-gtitle"><text class="gtitle" x="440.5" y="30" text-anchor="middle" dy="0em" style="font-family: 'Open Sans', verdana, arial, sans-serif; font-size: 17px; fill: rgb(68, 68, 68); opacity: 1; font-weight: normal; white-space: pre;">test accuracy</text></g><g class="g-xtitle"><text class="xtitle" x="404.5" y="448" text-anchor="middle" style="font-family: 'Open Sans', verdana, arial, sans-serif; font-size: 14px; fill: rgb(68, 68, 68); opacity: 1; font-weight: normal; white-space: pre;">iters</text></g><g class="g-ytitle"><text class="ytitle" transform="rotate(-90,22,228)" x="22" y="228" text-anchor="middle" style="font-family: 'Open Sans', verdana, arial, sans-serif; font-size: 14px; fill: rgb(68, 68, 68); opacity: 1; font-weight: normal; white-space: pre;">test accuracy</text></g></g></svg>